<svg xmlns="http://www.w3.org/2000/svg" xmlns:xlink="http://www.w3.org/1999/xlink" width="500" zoomAndPan="magnify" viewBox="0 0 375 37.5" height="50" preserveAspectRatio="xMidYMid meet" version="1.0"><defs><clipPath id="504a5fdb73"><path d="M 4 6.9375 L 371 6.9375 L 371 37.007812 L 4 37.007812 Z M 4 6.9375 " clip-rule="nonzero"/></clipPath><clipPath id="276054efb0"><path d="M 196.132812 12.953125 L 207.234375 12.953125 L 207.234375 24.054688 L 196.132812 24.054688 Z M 196.132812 12.953125 " clip-rule="nonzero"/></clipPath><clipPath id="0e624cfd41"><path d="M 0.132812 0.953125 L 11.234375 0.953125 L 11.234375 12.054688 L 0.132812 12.054688 Z M 0.132812 0.953125 " clip-rule="nonzero"/></clipPath><clipPath id="c212552538"><rect x="0" width="12" y="0" height="13"/></clipPath></defs><path fill="#cdc2fd" d="M 139.230469 24.375 C 139.230469 24.375 139.230469 24.417969 139.230469 24.453125 C 139.230469 24.484375 139.230469 24.488281 139.230469 24.511719 C 139.253906 24.59375 139.28125 24.671875 139.320312 24.746094 C 139.335938 24.777344 139.351562 24.804688 139.371094 24.832031 C 139.402344 24.875 139.433594 24.917969 139.472656 24.957031 L 139.582031 25.054688 C 139.652344 25.105469 139.730469 25.144531 139.808594 25.175781 L 139.933594 25.210938 C 140.015625 25.234375 140.101562 25.242188 140.1875 25.238281 C 140.316406 25.234375 140.433594 25.199219 140.546875 25.136719 L 140.589844 25.113281 L 140.628906 25.085938 C 140.628906 25.085938 140.652344 25.085938 140.667969 25.054688 L 140.722656 24.992188 L 140.753906 24.960938 C 140.75 24.949219 140.75 24.9375 140.753906 24.925781 L 140.777344 24.894531 C 140.773438 24.882812 140.773438 24.871094 140.777344 24.859375 L 140.777344 24.753906 L 140.804688 24.695312 C 140.804688 24.679688 140.804688 24.667969 140.804688 24.65625 L 140.804688 24.574219 C 140.808594 24.5625 140.808594 24.546875 140.804688 24.53125 C 140.804688 24.53125 140.804688 24.5 140.804688 24.484375 C 140.808594 24.46875 140.808594 24.457031 140.804688 24.441406 L 140.804688 24.203125 C 140.808594 24.15625 140.808594 24.109375 140.804688 24.0625 C 140.804688 24.007812 140.804688 23.953125 140.804688 23.894531 C 140.800781 23.789062 140.789062 23.6875 140.769531 23.585938 C 140.667969 23.003906 140.449219 22.46875 140.113281 21.980469 C 140.117188 22.023438 140.117188 22.0625 140.113281 22.101562 L 140.113281 22.253906 C 140.113281 22.285156 140.113281 22.316406 140.113281 22.34375 C 140.117188 22.351562 140.117188 22.363281 140.113281 22.371094 C 140.121094 22.410156 140.121094 22.453125 140.113281 22.492188 C 140.078125 22.867188 139.917969 23.1875 139.640625 23.441406 C 139.453125 23.550781 139.296875 23.6875 139.164062 23.855469 C 139.082031 23.976562 139.027344 24.109375 138.996094 24.25 C 138.996094 24.261719 138.996094 24.269531 138.996094 24.28125 C 138.992188 24.308594 138.992188 24.339844 138.996094 24.371094 C 138.992188 24.40625 138.992188 24.445312 138.996094 24.480469 Z M 139.230469 24.375 " fill-opacity="1" fill-rule="nonzero"/><path fill="#cdc2fd" d="M 350.570312 25.144531 C 350.480469 25.273438 350.421875 25.414062 350.390625 25.566406 L 350.390625 25.613281 C 350.390625 25.640625 350.390625 25.675781 350.390625 25.707031 L 350.390625 25.84375 C 350.390625 25.84375 350.390625 25.886719 350.390625 25.925781 C 350.386719 25.945312 350.386719 25.96875 350.390625 25.988281 L 350.390625 26.011719 C 350.410156 26.097656 350.445312 26.179688 350.484375 26.257812 C 350.5 26.292969 350.519531 26.320312 350.542969 26.351562 C 350.570312 26.398438 350.605469 26.441406 350.648438 26.484375 L 350.765625 26.585938 C 350.839844 26.640625 350.917969 26.683594 351.003906 26.714844 L 351.136719 26.753906 C 351.226562 26.765625 351.316406 26.765625 351.40625 26.753906 C 351.542969 26.75 351.671875 26.714844 351.789062 26.648438 C 351.804688 26.644531 351.820312 26.632812 351.835938 26.621094 L 351.878906 26.59375 L 351.917969 26.558594 L 351.949219 26.519531 L 351.984375 26.488281 L 352.007812 26.453125 L 352.035156 26.421875 C 352.042969 26.40625 352.050781 26.394531 352.058594 26.382812 L 352.058594 26.347656 C 352.0625 26.335938 352.0625 26.320312 352.058594 26.308594 L 352.058594 26.214844 L 352.089844 26.148438 L 352.089844 26.039062 C 352.089844 26.039062 352.089844 26.039062 352.089844 26.011719 L 352.089844 25.917969 C 352.089844 25.902344 352.089844 25.886719 352.089844 25.867188 L 352.089844 25.730469 C 352.089844 25.691406 352.089844 25.65625 352.089844 25.613281 C 352.089844 25.566406 352.089844 25.511719 352.089844 25.457031 C 352.089844 25.402344 352.089844 25.339844 352.089844 25.277344 C 352.089844 25.179688 352.089844 25.070312 352.050781 24.949219 C 351.941406 24.332031 351.710938 23.761719 351.351562 23.246094 C 351.351562 23.285156 351.351562 23.328125 351.351562 23.371094 L 351.351562 23.539062 C 351.351562 23.566406 351.351562 23.597656 351.351562 23.628906 L 351.351562 23.789062 C 351.304688 24.203125 351.125 24.546875 350.8125 24.824219 C 350.71875 24.921875 350.640625 25.027344 350.570312 25.144531 Z M 350.570312 25.144531 " fill-opacity="1" fill-rule="nonzero"/><path fill="#cdc2fd" d="M 332.777344 24.503906 C 332.777344 24.503906 332.777344 24.546875 332.777344 24.585938 C 332.773438 24.605469 332.773438 24.625 332.777344 24.644531 C 332.796875 24.734375 332.832031 24.816406 332.871094 24.894531 C 332.886719 24.929688 332.90625 24.960938 332.929688 24.988281 C 332.957031 25.039062 332.992188 25.082031 333.035156 25.121094 C 333.070312 25.160156 333.109375 25.195312 333.152344 25.222656 C 333.226562 25.277344 333.304688 25.324219 333.390625 25.355469 L 333.523438 25.394531 C 333.613281 25.414062 333.699219 25.421875 333.789062 25.417969 C 333.929688 25.414062 334.054688 25.378906 334.175781 25.3125 L 334.222656 25.285156 L 334.246094 25.285156 L 334.289062 25.253906 L 334.328125 25.222656 L 334.394531 25.15625 L 334.394531 25.121094 L 334.421875 25.085938 L 334.421875 25.050781 C 334.421875 25.039062 334.421875 25.027344 334.421875 25.015625 C 334.433594 25.003906 334.441406 24.988281 334.445312 24.976562 L 334.445312 24.902344 L 334.476562 24.839844 L 334.476562 24.632812 C 334.476562 24.617188 334.476562 24.605469 334.476562 24.589844 L 334.476562 24.351562 C 334.476562 24.3125 334.476562 24.273438 334.476562 24.234375 C 334.476562 24.179688 334.476562 24.132812 334.476562 24.074219 C 334.476562 24.023438 334.476562 23.960938 334.476562 23.898438 C 334.476562 23.800781 334.476562 23.691406 334.4375 23.570312 C 334.332031 22.949219 334.097656 22.382812 333.738281 21.867188 C 333.738281 21.90625 333.738281 21.949219 333.738281 21.992188 L 333.738281 22.117188 C 333.738281 22.117188 333.738281 22.144531 333.738281 22.15625 C 333.742188 22.1875 333.742188 22.21875 333.738281 22.25 L 333.738281 22.40625 C 333.691406 22.820312 333.511719 23.164062 333.199219 23.4375 C 333 23.550781 332.828125 23.699219 332.683594 23.878906 C 332.59375 24.007812 332.53125 24.148438 332.5 24.300781 C 332.503906 24.308594 332.503906 24.316406 332.5 24.328125 C 332.5 24.359375 332.5 24.394531 332.5 24.425781 L 332.5 24.566406 Z M 332.777344 24.503906 " fill-opacity="1" fill-rule="nonzero"/><path fill="#cdc2fd" d="M 270.15625 24.621094 C 270.15625 24.621094 270.15625 24.671875 270.15625 24.707031 L 270.15625 24.796875 C 270.179688 24.886719 270.214844 24.972656 270.257812 25.054688 C 270.273438 25.089844 270.292969 25.125 270.316406 25.15625 C 270.347656 25.203125 270.386719 25.246094 270.425781 25.289062 L 270.546875 25.398438 C 270.625 25.453125 270.710938 25.496094 270.800781 25.53125 C 270.84375 25.550781 270.890625 25.5625 270.9375 25.574219 C 271.03125 25.59375 271.125 25.601562 271.21875 25.597656 C 271.363281 25.59375 271.496094 25.558594 271.625 25.492188 L 271.671875 25.460938 L 271.695312 25.460938 L 271.738281 25.425781 L 271.78125 25.394531 L 271.8125 25.355469 C 271.824219 25.34375 271.835938 25.335938 271.847656 25.320312 L 271.875 25.285156 L 271.902344 25.246094 C 271.90625 25.234375 271.90625 25.21875 271.902344 25.207031 L 271.929688 25.175781 L 271.929688 25.03125 L 271.957031 24.964844 C 271.960938 24.949219 271.960938 24.9375 271.957031 24.921875 L 271.957031 24.726562 C 271.953125 24.714844 271.953125 24.699219 271.957031 24.683594 C 271.960938 24.648438 271.960938 24.613281 271.957031 24.578125 L 271.957031 24.417969 C 271.957031 24.371094 271.957031 24.3125 271.957031 24.257812 C 271.957031 24.199219 271.957031 24.136719 271.957031 24.070312 C 271.949219 23.957031 271.933594 23.839844 271.914062 23.726562 C 271.804688 23.082031 271.5625 22.488281 271.1875 21.949219 C 271.1875 21.992188 271.1875 22.035156 271.1875 22.078125 L 271.1875 22.210938 C 271.183594 22.222656 271.183594 22.234375 271.1875 22.25 C 271.1875 22.28125 271.1875 22.316406 271.1875 22.347656 C 271.1875 22.359375 271.1875 22.371094 271.1875 22.382812 C 271.191406 22.425781 271.191406 22.46875 271.1875 22.515625 C 271.140625 22.945312 270.953125 23.304688 270.628906 23.589844 C 270.414062 23.714844 270.234375 23.871094 270.082031 24.066406 C 269.988281 24.199219 269.929688 24.34375 269.894531 24.503906 C 269.898438 24.515625 269.898438 24.527344 269.894531 24.535156 C 269.894531 24.570312 269.894531 24.605469 269.894531 24.636719 L 269.894531 24.78125 Z M 270.15625 24.621094 " fill-opacity="1" fill-rule="nonzero"/><path fill="#cdc2fd" d="M 82.324219 22.925781 C 82.320312 22.960938 82.320312 22.992188 82.324219 23.027344 C 82.324219 23.050781 82.324219 23.078125 82.324219 23.109375 C 82.347656 23.222656 82.386719 23.328125 82.441406 23.429688 C 82.464844 23.472656 82.488281 23.511719 82.515625 23.550781 C 82.554688 23.609375 82.597656 23.667969 82.648438 23.71875 C 82.695312 23.765625 82.746094 23.808594 82.800781 23.851562 C 82.898438 23.921875 83.003906 23.976562 83.113281 24.019531 L 83.28125 24.066406 C 83.394531 24.09375 83.507812 24.105469 83.625 24.097656 C 83.792969 24.089844 83.949219 24.042969 84.097656 23.964844 C 84.121094 23.957031 84.140625 23.945312 84.160156 23.929688 L 84.1875 23.929688 L 84.242188 23.890625 L 84.292969 23.851562 L 84.324219 23.851562 L 84.367188 23.808594 L 84.402344 23.765625 L 84.441406 23.71875 L 84.476562 23.675781 L 84.503906 23.628906 L 84.53125 23.585938 L 84.558594 23.53125 L 84.558594 23.410156 C 84.570312 23.382812 84.582031 23.355469 84.597656 23.328125 C 84.597656 23.328125 84.597656 23.296875 84.597656 23.277344 L 84.597656 23.085938 C 84.601562 23.0625 84.601562 23.042969 84.597656 23.019531 L 84.597656 22.960938 C 84.609375 22.917969 84.617188 22.878906 84.621094 22.832031 C 84.621094 22.824219 84.621094 22.816406 84.621094 22.808594 C 84.625 22.757812 84.625 22.707031 84.621094 22.65625 C 84.621094 22.597656 84.621094 22.527344 84.621094 22.457031 C 84.621094 22.386719 84.621094 22.308594 84.621094 22.230469 C 84.621094 22.097656 84.59375 21.957031 84.570312 21.800781 C 84.433594 21.003906 84.136719 20.277344 83.675781 19.613281 C 83.675781 19.671875 83.675781 19.722656 83.675781 19.773438 L 83.675781 19.9375 C 83.675781 19.9375 83.675781 19.96875 83.675781 19.988281 C 83.675781 20.007812 83.675781 20.070312 83.675781 20.109375 C 83.675781 20.144531 83.675781 20.136719 83.675781 20.152344 C 83.675781 20.164062 83.675781 20.253906 83.675781 20.3125 C 83.617188 20.839844 83.390625 21.28125 82.992188 21.636719 C 82.730469 21.777344 82.503906 21.96875 82.320312 22.199219 C 82.207031 22.363281 82.132812 22.542969 82.089844 22.738281 C 82.089844 22.753906 82.089844 22.765625 82.089844 22.78125 C 82.085938 22.824219 82.085938 22.863281 82.089844 22.90625 L 82.089844 22.929688 C 82.085938 22.980469 82.085938 23.03125 82.089844 23.082031 Z M 82.324219 22.925781 " fill-opacity="1" fill-rule="nonzero"/><g clip-path="url(#504a5fdb73)"><path fill="#cdc2fd" d="M 355.046875 31.78125 C 354.351562 31.613281 353.671875 31.460938 352.992188 31.308594 C 352.996094 31.285156 352.996094 31.257812 352.992188 31.234375 C 352.996094 31.191406 352.996094 31.144531 352.992188 31.097656 C 352.996094 31.046875 352.996094 31 352.992188 30.949219 C 352.921875 30.222656 352.855469 29.496094 352.78125 28.769531 L 352.734375 28.265625 L 352.773438 28.320312 C 352.800781 28.378906 352.839844 28.429688 352.886719 28.472656 C 352.949219 28.523438 353.007812 28.523438 353.066406 28.472656 C 353.070312 28.460938 353.070312 28.453125 353.066406 28.441406 C 353.066406 28.441406 353.066406 28.441406 353.066406 28.417969 L 353.066406 28.328125 C 353.066406 28.316406 353.066406 28.300781 353.066406 28.285156 L 352.867188 27.371094 C 352.859375 27.265625 352.816406 27.175781 352.734375 27.101562 C 352.679688 27.0625 352.621094 27.046875 352.554688 27.050781 C 352.125 27.058594 351.707031 27.140625 351.304688 27.292969 C 350.800781 27.429688 350.324219 27.632812 349.875 27.894531 C 349.851562 27.921875 349.828125 27.949219 349.808594 27.980469 C 349.808594 28 349.808594 28.015625 349.808594 28.035156 L 349.808594 28.082031 C 349.808594 28.082031 349.808594 28.109375 349.808594 28.121094 C 349.808594 28.128906 349.808594 28.152344 349.808594 28.167969 C 349.808594 28.179688 349.808594 28.277344 349.710938 28.476562 C 349.609375 28.675781 349.574219 28.777344 349.5625 28.824219 C 349.492188 29.019531 349.417969 29.226562 349.515625 29.328125 C 349.628906 29.410156 349.746094 29.410156 349.863281 29.328125 L 349.863281 29.402344 C 349.859375 29.429688 349.859375 29.457031 349.863281 29.484375 C 349.859375 29.535156 349.859375 29.585938 349.863281 29.636719 L 349.863281 29.71875 C 349.828125 29.9375 349.796875 30.195312 349.757812 30.425781 L 349.734375 30.589844 L 349.734375 30.632812 C 347.6875 30.25 345.722656 29.941406 343.851562 29.679688 L 343.851562 21.117188 C 344.804688 20.839844 345.628906 20.351562 346.328125 19.652344 C 347.027344 18.953125 347.515625 18.128906 347.792969 17.175781 L 350.769531 17.175781 L 350.769531 13.96875 L 347.792969 13.96875 C 347.515625 13.019531 347.027344 12.195312 346.328125 11.492188 C 345.628906 10.792969 344.804688 10.304688 343.851562 10.03125 L 343.851562 7.722656 L 340.644531 7.722656 L 340.644531 10.078125 C 339.695312 10.355469 338.871094 10.84375 338.171875 11.542969 C 337.472656 12.242188 336.984375 13.066406 336.707031 14.019531 L 333.730469 14.019531 L 333.730469 17.214844 L 336.707031 17.214844 C 336.984375 18.164062 337.472656 18.988281 338.171875 19.691406 C 338.871094 20.390625 339.695312 20.878906 340.644531 21.15625 L 340.644531 29.367188 C 338.765625 29.183594 336.996094 29.0625 335.351562 28.980469 C 335.304688 28.460938 335.253906 27.945312 335.203125 27.429688 L 335.15625 26.925781 C 335.167969 26.941406 335.183594 26.960938 335.195312 26.976562 C 335.222656 27.035156 335.261719 27.085938 335.308594 27.128906 C 335.367188 27.175781 335.429688 27.175781 335.488281 27.128906 L 335.488281 27.050781 C 335.488281 27.050781 335.488281 27.019531 335.488281 27.007812 L 335.289062 26.09375 C 335.28125 25.984375 335.238281 25.894531 335.15625 25.820312 C 335.101562 25.785156 335.042969 25.765625 334.976562 25.769531 C 334.542969 25.777344 334.128906 25.855469 333.722656 26.007812 C 332.695312 26.40625 332.449219 26.484375 332.296875 26.617188 C 332.269531 26.640625 332.25 26.671875 332.230469 26.703125 C 332.226562 26.71875 332.226562 26.734375 332.230469 26.75 L 332.230469 26.730469 C 332.230469 26.742188 332.230469 26.753906 332.230469 26.769531 C 332.230469 26.785156 332.230469 26.800781 332.230469 26.816406 C 332.230469 26.886719 332.230469 26.925781 332.128906 27.125 C 332.03125 27.324219 331.996094 27.425781 331.984375 27.472656 C 331.910156 27.667969 331.839844 27.875 331.933594 27.976562 C 332.050781 28.058594 332.167969 28.058594 332.28125 27.976562 L 332.28125 28.128906 C 332.28125 28.179688 332.28125 28.234375 332.28125 28.285156 L 332.28125 28.367188 C 332.28125 28.507812 332.238281 28.671875 332.214844 28.84375 C 330.113281 28.796875 328.265625 28.808594 326.726562 28.84375 L 326.207031 28.84375 L 326.207031 23.515625 C 326.839844 23.332031 327.390625 23.007812 327.855469 22.539062 C 328.324219 22.074219 328.648438 21.527344 328.832031 20.894531 L 330.816406 20.894531 L 330.816406 18.757812 L 328.832031 18.757812 C 328.648438 18.121094 328.324219 17.574219 327.855469 17.105469 C 327.390625 16.640625 326.839844 16.3125 326.207031 16.128906 L 326.207031 14.59375 L 324.070312 14.59375 L 324.070312 16.128906 C 323.4375 16.3125 322.886719 16.640625 322.421875 17.105469 C 321.953125 17.574219 321.628906 18.121094 321.445312 18.757812 L 319.460938 18.757812 L 319.460938 20.894531 L 321.445312 20.894531 C 321.628906 21.527344 321.953125 22.074219 322.421875 22.539062 C 322.886719 23.007812 323.4375 23.332031 324.070312 23.515625 L 324.070312 28.871094 L 318.488281 28.929688 C 318.210938 28.769531 317.910156 28.664062 317.589844 28.609375 L 317.167969 28.519531 C 316.933594 28.472656 316.714844 28.390625 316.507812 28.277344 C 316.320312 28.144531 316.125 28.023438 315.921875 27.914062 L 315.832031 27.882812 C 315.761719 27.855469 315.6875 27.835938 315.613281 27.828125 C 315.789062 27.472656 315.957031 27.113281 316.113281 26.746094 C 316.132812 26.703125 316.144531 26.660156 316.144531 26.617188 C 316.132812 26.558594 316.101562 26.507812 316.058594 26.464844 L 314.550781 24.707031 C 315.277344 24.421875 315.808594 24.234375 315.976562 24.175781 C 316.058594 24.148438 316.132812 24.109375 316.203125 24.054688 C 316.355469 23.90625 316.453125 23.726562 316.496094 23.515625 C 316.496094 23.464844 316.519531 23.410156 316.535156 23.34375 C 316.539062 23.296875 316.539062 23.246094 316.535156 23.199219 C 316.578125 23.003906 316.605469 22.765625 316.605469 22.765625 C 316.558594 22.875 316.507812 22.980469 316.449219 23.085938 C 316.335938 23.238281 316.1875 23.34375 316.007812 23.394531 C 315.84375 23.453125 315.769531 23.484375 315.082031 23.328125 C 315.027344 23.324219 314.972656 23.300781 314.925781 23.265625 C 314.882812 23.226562 314.851562 23.183594 314.832031 23.128906 L 314.550781 22.542969 C 314.523438 22.488281 314.492188 22.429688 314.46875 22.371094 C 314.449219 22.339844 314.441406 22.304688 314.441406 22.269531 C 314.457031 22.222656 314.484375 22.191406 314.523438 22.167969 C 314.773438 21.980469 315.03125 21.804688 315.289062 21.636719 C 315.394531 21.574219 315.507812 21.519531 315.625 21.476562 L 316.019531 21.476562 C 316.171875 21.511719 316.308594 21.570312 316.433594 21.660156 C 316.304688 21.433594 316.128906 21.253906 315.902344 21.125 C 315.675781 21.015625 315.441406 20.949219 315.191406 20.921875 L 315.078125 20.921875 L 313.984375 21.515625 L 313.878906 21.605469 L 313.851562 21.628906 L 313.789062 21.6875 L 313.714844 21.761719 C 313.71875 21.402344 313.839844 21.085938 314.074219 20.8125 C 314.171875 20.699219 314.285156 20.605469 314.414062 20.53125 L 314.480469 20.492188 L 314.542969 20.460938 L 314.597656 20.4375 L 314.636719 20.4375 C 314.898438 20.347656 315.164062 20.335938 315.429688 20.402344 C 315.242188 20.296875 315.042969 20.222656 314.832031 20.183594 C 314.617188 20.152344 314.402344 20.152344 314.1875 20.183594 C 314.058594 20.203125 313.925781 20.234375 313.800781 20.277344 L 313.105469 20.496094 C 313.066406 20.507812 313.03125 20.527344 313.003906 20.558594 C 312.984375 20.589844 312.976562 20.625 312.976562 20.664062 L 312.917969 21.773438 C 312.6875 21.648438 312.53125 21.460938 312.441406 21.210938 C 312.363281 20.96875 312.324219 20.71875 312.324219 20.464844 C 312.320312 20.375 312.320312 20.285156 312.324219 20.191406 C 312.324219 20.09375 312.34375 19.996094 312.386719 19.902344 C 312.425781 19.808594 312.480469 19.726562 312.554688 19.652344 C 312.667969 19.535156 312.761719 19.511719 312.757812 19.492188 C 312.5 19.492188 312.269531 19.570312 312.066406 19.730469 C 311.953125 19.8125 311.867188 19.917969 311.8125 20.046875 C 311.777344 20.117188 311.761719 20.1875 311.757812 20.265625 C 311.757812 20.632812 311.714844 20.996094 311.695312 21.367188 C 311.683594 21.441406 311.683594 21.511719 311.695312 21.582031 C 311.746094 21.710938 311.824219 21.8125 311.933594 21.898438 C 312.214844 22.148438 312.429688 22.445312 312.582031 22.785156 C 312.734375 23.148438 312.722656 23.503906 312.539062 23.851562 C 312.710938 24.140625 312.882812 24.433594 313.058594 24.722656 C 313.625 25.398438 314.171875 26.089844 314.699219 26.800781 C 314.730469 26.839844 314.75 26.886719 314.761719 26.933594 C 314.757812 26.980469 314.742188 27.019531 314.71875 27.054688 C 314.652344 27.144531 313.632812 27.953125 312.8125 28.585938 L 312.585938 28.585938 C 312.410156 28.523438 312.226562 28.480469 312.039062 28.460938 C 311.785156 28.4375 311.535156 28.453125 311.289062 28.5 C 311.214844 28.511719 311.140625 28.527344 311.066406 28.546875 C 310.890625 28.59375 310.722656 28.652344 310.558594 28.734375 C 310.460938 28.78125 310.363281 28.832031 310.273438 28.894531 C 310.195312 28.945312 310.117188 29.003906 310.050781 29.070312 C 310.035156 29.085938 310.023438 29.105469 310.011719 29.125 L 303.945312 29.199219 L 303.945312 21.972656 L 306.042969 21.972656 L 306.042969 22.796875 L 307.496094 22.796875 C 307.496094 22.683594 307.515625 22.574219 307.5625 22.46875 C 307.605469 22.363281 307.667969 22.273438 307.75 22.195312 C 307.835938 22.117188 307.929688 22.058594 308.035156 22.019531 C 308.144531 21.980469 308.253906 21.964844 308.367188 21.972656 L 308.75 21.972656 L 308.75 19.785156 L 308.367188 19.785156 C 308.136719 19.785156 307.945312 19.707031 307.78125 19.542969 C 307.621094 19.382812 307.542969 19.1875 307.542969 18.960938 L 306.09375 18.960938 L 306.09375 19.785156 L 303.992188 19.785156 L 303.992188 17.953125 L 304.816406 17.953125 L 304.816406 16.5 C 304.589844 16.503906 304.394531 16.421875 304.234375 16.261719 C 304.074219 16.101562 303.992188 15.910156 303.992188 15.683594 L 303.992188 15.492188 L 301.792969 15.492188 L 301.792969 15.683594 C 301.789062 15.910156 301.707031 16.101562 301.546875 16.261719 C 301.386719 16.421875 301.195312 16.5 300.96875 16.5 L 300.96875 17.953125 L 301.792969 17.953125 L 301.792969 19.785156 L 299.691406 19.785156 L 299.691406 18.960938 L 298.242188 18.960938 C 298.242188 19.1875 298.164062 19.382812 298.003906 19.542969 C 297.84375 19.703125 297.652344 19.785156 297.421875 19.785156 L 297.039062 19.785156 L 297.039062 21.972656 L 297.421875 21.972656 C 297.652344 21.972656 297.847656 22.050781 298.007812 22.210938 C 298.167969 22.375 298.246094 22.566406 298.246094 22.796875 L 299.699219 22.796875 L 299.699219 21.972656 L 301.796875 21.972656 L 301.796875 29.109375 L 294.183594 29.214844 L 294.183594 17.691406 C 294.183594 17.171875 294.132812 16.65625 294.03125 16.148438 C 293.929688 15.636719 293.78125 15.144531 293.582031 14.664062 C 293.382812 14.183594 293.140625 13.726562 292.851562 13.296875 C 292.5625 12.863281 292.234375 12.464844 291.867188 12.097656 C 291.5 11.730469 291.097656 11.402344 290.667969 11.113281 C 290.234375 10.824219 289.78125 10.578125 289.300781 10.382812 C 288.820312 10.183594 288.324219 10.03125 287.816406 9.929688 C 287.304688 9.828125 286.792969 9.777344 286.273438 9.777344 C 285.753906 9.777344 285.238281 9.828125 284.726562 9.929688 C 284.21875 10.03125 283.722656 10.183594 283.242188 10.382812 C 282.765625 10.578125 282.308594 10.824219 281.875 11.113281 C 281.445312 11.402344 281.042969 11.730469 280.675781 12.097656 C 280.308594 12.464844 279.980469 12.863281 279.695312 13.296875 C 279.40625 13.726562 279.160156 14.183594 278.960938 14.664062 C 278.761719 15.144531 278.613281 15.636719 278.511719 16.148438 C 278.410156 16.65625 278.359375 17.171875 278.359375 17.691406 L 278.359375 29.457031 C 276.328125 29.484375 274.554688 29.503906 272.933594 29.519531 C 272.875 28.898438 272.816406 28.28125 272.753906 27.664062 L 272.707031 27.132812 L 272.746094 27.191406 C 272.773438 27.253906 272.8125 27.304688 272.863281 27.347656 C 272.929688 27.398438 272.992188 27.398438 273.054688 27.347656 L 273.054688 27.320312 C 273.054688 27.320312 273.054688 27.320312 273.054688 27.296875 L 273.054688 27.242188 C 273.054688 27.242188 273.054688 27.210938 273.054688 27.195312 C 272.984375 26.878906 272.917969 26.558594 272.847656 26.246094 C 272.835938 26.132812 272.792969 26.039062 272.707031 25.964844 C 272.652344 25.925781 272.589844 25.90625 272.523438 25.90625 C 272.070312 25.917969 271.632812 26 271.210938 26.160156 C 270.140625 26.574219 269.878906 26.660156 269.738281 26.792969 C 269.714844 26.820312 269.6875 26.847656 269.667969 26.878906 L 269.667969 26.929688 C 269.664062 26.941406 269.664062 26.953125 269.667969 26.964844 C 269.667969 26.964844 269.667969 26.992188 269.667969 27 C 269.667969 27.011719 269.667969 27.035156 269.667969 27.054688 C 269.667969 27.074219 269.667969 27.167969 269.5625 27.371094 C 269.457031 27.578125 269.429688 27.6875 269.410156 27.734375 C 269.339844 27.945312 269.261719 28.164062 269.359375 28.265625 C 269.480469 28.347656 269.601562 28.347656 269.726562 28.265625 L 269.726562 28.429688 C 269.726562 28.480469 269.726562 28.539062 269.703125 28.589844 L 269.703125 28.675781 C 269.664062 28.90625 269.628906 29.152344 269.585938 29.417969 L 269.585938 29.539062 C 265.148438 29.539062 262.378906 29.464844 259.449219 29.25 L 259.449219 21.292969 L 262.503906 21.292969 L 262.503906 22.492188 L 264.609375 22.492188 C 264.609375 22.332031 264.640625 22.179688 264.703125 22.035156 C 264.761719 21.886719 264.847656 21.757812 264.960938 21.644531 C 265.070312 21.53125 265.203125 21.445312 265.347656 21.386719 C 265.492188 21.324219 265.644531 21.292969 265.804688 21.292969 L 266.367188 21.292969 L 266.367188 18.085938 L 265.804688 18.085938 C 265.644531 18.085938 265.496094 18.054688 265.347656 17.996094 C 265.203125 17.933594 265.074219 17.847656 264.960938 17.734375 C 264.847656 17.625 264.761719 17.496094 264.703125 17.347656 C 264.640625 17.203125 264.609375 17.050781 264.609375 16.890625 L 262.503906 16.890625 L 262.503906 18.085938 L 259.449219 18.085938 L 259.449219 15.425781 L 260.644531 15.425781 L 260.644531 13.3125 C 260.484375 13.3125 260.332031 13.285156 260.1875 13.222656 C 260.039062 13.164062 259.910156 13.074219 259.796875 12.964844 C 259.6875 12.851562 259.601562 12.722656 259.539062 12.578125 C 259.480469 12.429688 259.449219 12.277344 259.449219 12.121094 L 259.449219 11.84375 L 256.242188 11.84375 L 256.242188 12.121094 C 256.242188 12.277344 256.210938 12.429688 256.152344 12.578125 C 256.089844 12.722656 256.003906 12.851562 255.890625 12.964844 C 255.78125 13.074219 255.652344 13.164062 255.503906 13.222656 C 255.359375 13.285156 255.207031 13.3125 255.046875 13.3125 L 255.046875 15.425781 L 256.242188 15.425781 L 256.242188 18.085938 L 253.1875 18.085938 L 253.1875 16.890625 L 251.082031 16.890625 C 251.082031 17.050781 251.050781 17.203125 250.988281 17.347656 C 250.929688 17.496094 250.84375 17.625 250.730469 17.734375 C 250.617188 17.847656 250.488281 17.933594 250.34375 17.996094 C 250.195312 18.054688 250.042969 18.085938 249.886719 18.085938 L 249.324219 18.085938 L 249.324219 21.292969 L 249.847656 21.292969 C 250.007812 21.292969 250.160156 21.324219 250.304688 21.386719 C 250.453125 21.445312 250.582031 21.53125 250.691406 21.644531 C 250.804688 21.757812 250.890625 21.886719 250.953125 22.035156 C 251.011719 22.179688 251.042969 22.332031 251.042969 22.492188 L 253.148438 22.492188 L 253.148438 21.292969 L 256.203125 21.292969 L 256.203125 28.988281 L 255.585938 28.933594 C 250.980469 28.457031 246.375 27.894531 241.789062 27.324219 L 241.789062 22.714844 C 242.300781 22.566406 242.742188 22.304688 243.117188 21.925781 C 243.496094 21.550781 243.757812 21.109375 243.90625 20.597656 L 245.507812 20.597656 L 245.507812 18.875 L 243.90625 18.875 C 243.757812 18.359375 243.492188 17.910156 243.109375 17.527344 C 242.730469 17.148438 242.277344 16.886719 241.761719 16.738281 L 241.761719 15.496094 L 240.039062 15.496094 L 240.039062 16.738281 C 239.527344 16.886719 239.082031 17.148438 238.707031 17.527344 C 238.332031 17.902344 238.070312 18.34375 237.921875 18.855469 L 236.320312 18.855469 L 236.320312 20.578125 L 237.921875 20.578125 C 238.070312 21.089844 238.332031 21.53125 238.707031 21.910156 C 239.082031 22.285156 239.527344 22.546875 240.039062 22.695312 L 240.039062 27.097656 C 237.886719 26.835938 235.757812 26.578125 233.589844 26.34375 L 233.589844 21.253906 C 233.574219 20.734375 233.457031 20.234375 233.246094 19.761719 C 233.035156 19.285156 232.742188 18.867188 232.367188 18.503906 C 231.992188 18.144531 231.566406 17.863281 231.082031 17.667969 C 230.601562 17.472656 230.097656 17.375 229.578125 17.375 C 229.058594 17.375 228.554688 17.472656 228.074219 17.667969 C 227.589844 17.863281 227.164062 18.144531 226.789062 18.503906 C 226.414062 18.867188 226.121094 19.285156 225.910156 19.761719 C 225.699219 20.234375 225.582031 20.734375 225.566406 21.253906 L 225.566406 25.613281 C 224.265625 25.515625 222.964844 25.4375 221.664062 25.371094 C 221.65625 25.34375 221.648438 25.316406 221.636719 25.292969 C 221.597656 25.234375 221.550781 25.179688 221.503906 25.125 C 221.433594 25.0625 221.359375 25.003906 221.277344 24.949219 C 221.1875 24.890625 221.09375 24.835938 220.992188 24.789062 C 220.828125 24.710938 220.65625 24.648438 220.480469 24.605469 C 220.40625 24.582031 220.335938 24.566406 220.261719 24.554688 C 219.820312 24.464844 219.390625 24.492188 218.964844 24.640625 L 218.738281 24.640625 C 217.9375 24.007812 216.921875 23.214844 216.835938 23.109375 C 216.808594 23.074219 216.796875 23.035156 216.792969 22.992188 C 216.800781 22.941406 216.820312 22.898438 216.855469 22.863281 C 217.378906 22.148438 217.929688 21.433594 218.496094 20.777344 L 219.015625 19.90625 C 218.832031 19.558594 218.816406 19.203125 218.972656 18.84375 C 219.125 18.5 219.339844 18.203125 219.617188 17.953125 C 219.726562 17.867188 219.804688 17.765625 219.855469 17.636719 C 219.867188 17.566406 219.867188 17.496094 219.855469 17.425781 L 219.789062 16.320312 C 219.789062 16.246094 219.773438 16.171875 219.742188 16.101562 C 219.683594 15.972656 219.597656 15.867188 219.480469 15.789062 C 219.28125 15.628906 219.050781 15.546875 218.796875 15.550781 C 218.796875 15.550781 218.882812 15.59375 218.996094 15.707031 C 219.066406 15.78125 219.121094 15.863281 219.160156 15.960938 C 219.203125 16.050781 219.226562 16.148438 219.226562 16.25 C 219.234375 16.339844 219.234375 16.429688 219.226562 16.519531 C 219.226562 16.777344 219.1875 17.023438 219.109375 17.265625 C 219.023438 17.515625 218.863281 17.703125 218.632812 17.828125 C 218.609375 17.457031 218.589844 17.085938 218.570312 16.71875 C 218.574219 16.683594 218.566406 16.648438 218.546875 16.617188 C 218.519531 16.585938 218.488281 16.5625 218.449219 16.554688 L 217.753906 16.335938 C 217.625 16.292969 217.496094 16.261719 217.363281 16.238281 C 217.148438 16.207031 216.933594 16.207031 216.722656 16.238281 C 216.507812 16.28125 216.308594 16.351562 216.121094 16.457031 C 216.390625 16.390625 216.65625 16.402344 216.917969 16.492188 L 216.953125 16.492188 L 217.007812 16.515625 L 217.140625 16.585938 C 217.269531 16.660156 217.378906 16.753906 217.476562 16.867188 C 217.714844 17.140625 217.835938 17.457031 217.839844 17.820312 L 217.761719 17.742188 L 217.699219 17.6875 L 217.671875 17.664062 L 217.566406 17.570312 L 216.472656 16.976562 L 216.359375 16.976562 C 216.113281 17.003906 215.875 17.074219 215.652344 17.183594 C 215.425781 17.3125 215.246094 17.488281 215.117188 17.714844 C 215.242188 17.628906 215.382812 17.566406 215.53125 17.535156 L 215.925781 17.535156 C 216.042969 17.574219 216.15625 17.625 216.265625 17.691406 C 216.527344 17.863281 216.78125 18.039062 217.035156 18.222656 C 217.074219 18.246094 217.101562 18.28125 217.117188 18.324219 C 217.117188 18.363281 217.109375 18.394531 217.085938 18.429688 L 217.019531 18.640625 C 216.925781 18.835938 216.832031 19.03125 216.738281 19.226562 C 216.71875 19.28125 216.6875 19.328125 216.644531 19.367188 C 216.597656 19.398438 216.546875 19.421875 216.488281 19.425781 C 215.796875 19.585938 215.726562 19.550781 215.566406 19.492188 C 215.382812 19.441406 215.234375 19.335938 215.121094 19.183594 C 215.066406 19.082031 215.011719 18.976562 214.964844 18.867188 C 214.964844 18.867188 214.992188 19.105469 215.03125 19.300781 C 215.03125 19.351562 215.03125 19.394531 215.03125 19.441406 C 215.039062 19.5 215.054688 19.558594 215.070312 19.613281 C 215.109375 19.824219 215.207031 20.007812 215.363281 20.15625 C 215.433594 20.207031 215.507812 20.246094 215.589844 20.273438 C 215.761719 20.320312 216.285156 20.523438 217.015625 20.808594 L 215.464844 22.5625 C 215.417969 22.605469 215.390625 22.65625 215.378906 22.714844 C 215.378906 22.761719 215.390625 22.804688 215.414062 22.84375 C 215.570312 23.210938 215.738281 23.574219 215.914062 23.929688 C 215.835938 23.9375 215.761719 23.953125 215.6875 23.980469 L 215.597656 24.011719 C 215.398438 24.125 215.203125 24.242188 215.011719 24.375 C 214.808594 24.492188 214.589844 24.570312 214.355469 24.617188 L 213.933594 24.707031 C 213.558594 24.761719 213.214844 24.898438 212.902344 25.113281 L 212.839844 25.167969 L 212.808594 25.203125 C 212.285156 25.203125 211.761719 25.203125 211.246094 25.238281 C 210.726562 25.269531 210.328125 25.273438 209.871094 25.292969 L 209.871094 15.546875 C 209.871094 15.027344 209.820312 14.511719 209.71875 14 C 209.617188 13.492188 209.464844 12.996094 209.269531 12.515625 C 209.070312 12.039062 208.824219 11.582031 208.535156 11.148438 C 208.246094 10.71875 207.921875 10.316406 207.550781 9.949219 C 207.183594 9.582031 206.785156 9.253906 206.355469 8.964844 C 205.921875 8.679688 205.464844 8.433594 204.984375 8.234375 C 204.507812 8.035156 204.011719 7.886719 203.5 7.785156 C 202.992188 7.683594 202.476562 7.632812 201.957031 7.632812 C 201.4375 7.632812 200.925781 7.683594 200.414062 7.785156 C 199.90625 7.886719 199.410156 8.035156 198.929688 8.234375 C 198.449219 8.433594 197.996094 8.679688 197.5625 8.964844 C 197.128906 9.253906 196.730469 9.582031 196.363281 9.949219 C 195.996094 10.316406 195.667969 10.71875 195.378906 11.148438 C 195.089844 11.582031 194.847656 12.039062 194.648438 12.515625 C 194.449219 12.996094 194.300781 13.492188 194.199219 14 C 194.097656 14.511719 194.046875 15.027344 194.046875 15.546875 L 194.046875 26.996094 C 190.570312 27.511719 187.101562 28.070312 183.628906 28.609375 L 183.628906 20.335938 C 184.578125 20.058594 185.402344 19.570312 186.101562 18.871094 C 186.800781 18.171875 187.289062 17.347656 187.566406 16.398438 L 190.542969 16.398438 L 190.542969 13.191406 L 187.566406 13.191406 C 187.289062 12.238281 186.800781 11.414062 186.101562 10.714844 C 185.402344 10.015625 184.578125 9.527344 183.628906 9.25 L 183.628906 6.945312 L 180.421875 6.945312 L 180.421875 9.25 C 179.46875 9.527344 178.644531 10.015625 177.945312 10.714844 C 177.246094 11.414062 176.757812 12.238281 176.480469 13.191406 L 173.503906 13.191406 L 173.503906 16.398438 L 176.480469 16.398438 C 176.757812 17.347656 177.246094 18.171875 177.945312 18.875 C 178.644531 19.574219 179.46875 20.0625 180.421875 20.335938 L 180.421875 29.109375 C 178.175781 29.441406 175.933594 29.75 173.6875 30.023438 L 173.6875 24.90625 C 173.699219 24.640625 173.679688 24.371094 173.636719 24.105469 C 173.589844 23.839844 173.519531 23.582031 173.425781 23.328125 C 173.328125 23.078125 173.207031 22.839844 173.0625 22.613281 C 172.917969 22.382812 172.75 22.171875 172.5625 21.980469 C 172.375 21.785156 172.171875 21.613281 171.949219 21.460938 C 171.726562 21.308594 171.492188 21.179688 171.246094 21.074219 C 170.996094 20.96875 170.738281 20.890625 170.476562 20.835938 C 170.210938 20.78125 169.945312 20.753906 169.675781 20.753906 C 169.40625 20.753906 169.140625 20.78125 168.875 20.835938 C 168.613281 20.890625 168.355469 20.96875 168.105469 21.074219 C 167.859375 21.179688 167.625 21.308594 167.402344 21.460938 C 167.179688 21.613281 166.976562 21.785156 166.789062 21.980469 C 166.601562 22.171875 166.433594 22.382812 166.289062 22.613281 C 166.144531 22.839844 166.023438 23.078125 165.925781 23.328125 C 165.832031 23.582031 165.761719 23.839844 165.714844 24.105469 C 165.671875 24.371094 165.652344 24.640625 165.664062 24.90625 L 165.664062 30.75 C 163.550781 30.882812 161.429688 30.953125 159.304688 30.949219 L 159.195312 30.949219 C 159.175781 30.917969 159.148438 30.886719 159.121094 30.859375 C 159.09375 30.832031 159.066406 30.804688 159.035156 30.777344 C 158.613281 30.484375 158.152344 30.300781 157.640625 30.230469 C 157.449219 30.1875 157.261719 30.15625 157.070312 30.109375 C 156.757812 30.042969 156.457031 29.9375 156.175781 29.785156 C 155.921875 29.609375 155.660156 29.453125 155.386719 29.308594 L 155.261719 29.261719 C 155.164062 29.230469 155.066406 29.207031 154.964844 29.195312 C 155.199219 28.71875 155.4375 28.242188 155.644531 27.722656 C 155.671875 27.671875 155.6875 27.613281 155.6875 27.554688 C 155.671875 27.472656 155.632812 27.40625 155.570312 27.347656 L 153.46875 24.96875 C 154.457031 24.578125 155.167969 24.308594 155.402344 24.246094 C 155.511719 24.210938 155.613281 24.15625 155.707031 24.082031 C 155.914062 23.878906 156.046875 23.636719 156.101562 23.351562 C 156.121094 23.273438 156.140625 23.195312 156.152344 23.113281 C 156.152344 23.058594 156.152344 22.992188 156.175781 22.917969 C 156.226562 22.65625 156.269531 22.335938 156.269531 22.335938 C 156.210938 22.484375 156.140625 22.628906 156.058594 22.765625 C 155.910156 22.976562 155.710938 23.121094 155.460938 23.191406 C 155.238281 23.265625 155.144531 23.3125 154.210938 23.101562 C 154.136719 23.085938 154.066406 23.058594 154 23.019531 C 153.945312 22.964844 153.902344 22.902344 153.875 22.828125 L 153.488281 22.035156 C 153.453125 21.953125 153.417969 21.878906 153.378906 21.800781 C 153.34375 21.753906 153.332031 21.703125 153.347656 21.644531 C 153.363281 21.585938 153.398438 21.546875 153.453125 21.527344 C 153.792969 21.277344 154.140625 21.050781 154.492188 20.808594 C 154.644531 20.722656 154.800781 20.648438 154.96875 20.59375 C 155.035156 20.585938 155.105469 20.585938 155.171875 20.59375 L 155.328125 20.59375 C 155.386719 20.597656 155.445312 20.605469 155.503906 20.617188 C 155.710938 20.660156 155.898438 20.742188 156.066406 20.863281 C 155.894531 20.554688 155.652344 20.316406 155.34375 20.140625 C 155.042969 19.992188 154.726562 19.898438 154.390625 19.859375 L 154.238281 19.859375 L 152.761719 20.667969 L 152.617188 20.789062 L 152.578125 20.820312 L 152.492188 20.898438 L 152.394531 20.996094 C 152.390625 20.5 152.546875 20.058594 152.871094 19.679688 C 153.007812 19.527344 153.164062 19.398438 153.34375 19.300781 L 153.4375 19.246094 L 153.519531 19.203125 L 153.59375 19.171875 L 153.640625 19.171875 C 153.996094 19.046875 154.355469 19.035156 154.71875 19.128906 C 154.464844 18.984375 154.195312 18.882812 153.90625 18.828125 C 153.617188 18.785156 153.328125 18.785156 153.039062 18.828125 C 152.859375 18.847656 152.679688 18.890625 152.507812 18.953125 L 151.554688 19.257812 C 151.503906 19.265625 151.457031 19.292969 151.417969 19.332031 C 151.394531 19.375 151.382812 19.425781 151.386719 19.476562 C 151.363281 19.972656 151.332031 20.472656 151.308594 20.972656 C 150.988281 20.808594 150.769531 20.554688 150.652344 20.210938 C 150.546875 19.882812 150.492188 19.546875 150.496094 19.203125 C 150.496094 19.050781 150.496094 18.929688 150.496094 18.84375 C 150.5 18.703125 150.53125 18.574219 150.585938 18.449219 C 150.640625 18.320312 150.714844 18.207031 150.808594 18.105469 C 150.964844 17.949219 151.089844 17.917969 151.085938 17.894531 C 150.730469 17.886719 150.414062 17.992188 150.132812 18.214844 C 149.976562 18.324219 149.859375 18.464844 149.78125 18.636719 C 149.742188 18.734375 149.71875 18.832031 149.714844 18.9375 L 149.628906 20.425781 C 149.617188 20.523438 149.617188 20.625 149.628906 20.722656 C 149.695312 20.894531 149.804688 21.035156 149.949219 21.148438 C 150.328125 21.484375 150.621094 21.882812 150.824219 22.347656 C 151.023438 22.832031 151.007812 23.308594 150.773438 23.777344 L 151.464844 24.949219 C 152.238281 25.863281 152.980469 26.804688 153.691406 27.765625 C 153.738281 27.816406 153.761719 27.878906 153.773438 27.945312 C 153.769531 28.003906 153.75 28.054688 153.714844 28.105469 C 153.628906 28.222656 152.25 29.324219 151.167969 30.179688 L 150.957031 30.179688 L 150.855469 30.15625 C 150.617188 30.070312 150.371094 30.011719 150.121094 29.984375 C 149.777344 29.953125 149.4375 29.972656 149.101562 30.035156 C 149 30.035156 148.90625 30.074219 148.808594 30.101562 C 148.566406 30.164062 148.335938 30.246094 148.113281 30.355469 C 148.066406 30.355469 148.03125 30.402344 147.984375 30.425781 C 145.875 30.21875 143.773438 29.949219 141.664062 29.699219 L 141.699219 29.632812 C 141.699219 29.632812 141.699219 29.589844 141.699219 29.566406 C 141.699219 29.523438 141.699219 29.480469 141.699219 29.4375 C 141.703125 29.390625 141.703125 29.34375 141.699219 29.292969 C 141.632812 28.613281 141.570312 27.929688 141.503906 27.25 L 141.460938 26.773438 C 141.472656 26.789062 141.480469 26.804688 141.496094 26.820312 C 141.519531 26.875 141.558594 26.925781 141.605469 26.96875 C 141.660156 27.015625 141.714844 27.015625 141.769531 26.96875 L 141.769531 26.730469 C 141.769531 26.730469 141.769531 26.695312 141.769531 26.6875 L 141.585938 25.828125 C 141.578125 25.722656 141.535156 25.640625 141.457031 25.574219 C 141.40625 25.542969 141.347656 25.527344 141.289062 25.523438 C 140.882812 25.53125 140.492188 25.609375 140.109375 25.75 C 139.644531 25.882812 139.203125 26.074219 138.789062 26.320312 C 138.761719 26.34375 138.742188 26.371094 138.726562 26.402344 C 138.71875 26.417969 138.71875 26.433594 138.726562 26.449219 L 138.726562 26.515625 C 138.726562 26.515625 138.726562 26.539062 138.726562 26.550781 C 138.726562 26.558594 138.726562 26.578125 138.726562 26.59375 C 138.726562 26.605469 138.726562 26.695312 138.628906 26.882812 C 138.535156 27.066406 138.507812 27.167969 138.492188 27.210938 C 138.425781 27.394531 138.355469 27.589844 138.445312 27.6875 C 138.554688 27.761719 138.664062 27.761719 138.773438 27.6875 C 138.773438 27.710938 138.773438 27.734375 138.773438 27.757812 L 138.773438 27.832031 C 138.773438 27.882812 138.773438 27.929688 138.75 27.980469 L 138.75 28.058594 C 138.714844 28.257812 138.683594 28.480469 138.648438 28.722656 C 138.648438 28.777344 138.648438 28.824219 138.648438 28.875 L 138.621094 29.066406 C 138.621094 29.066406 138.621094 29.097656 138.621094 29.117188 C 138.621094 29.136719 138.621094 29.179688 138.621094 29.207031 L 134.582031 28.675781 C 134.585938 28.65625 134.585938 28.636719 134.582031 28.613281 C 134.585938 28.59375 134.585938 28.574219 134.582031 28.558594 C 134.582031 28.558594 134.582031 28.523438 134.582031 28.503906 C 134.574219 28.476562 134.566406 28.445312 134.558594 28.417969 C 134.558594 28.40625 134.558594 28.390625 134.558594 28.375 C 134.539062 28.335938 134.515625 28.296875 134.488281 28.257812 L 134.429688 28.191406 L 134.363281 28.132812 C 134.050781 27.914062 133.707031 27.777344 133.332031 27.730469 L 132.910156 27.640625 C 132.679688 27.589844 132.460938 27.507812 132.25 27.394531 C 132.0625 27.265625 131.867188 27.144531 131.664062 27.035156 L 131.574219 26.996094 C 131.5 26.972656 131.425781 26.957031 131.351562 26.949219 C 131.527344 26.59375 131.699219 26.230469 131.855469 25.863281 C 131.875 25.824219 131.886719 25.78125 131.890625 25.734375 C 131.878906 25.675781 131.847656 25.625 131.804688 25.582031 L 130.246094 23.828125 C 130.980469 23.542969 131.503906 23.351562 131.675781 23.296875 C 131.757812 23.269531 131.835938 23.226562 131.902344 23.171875 C 132.058594 23.023438 132.15625 22.84375 132.191406 22.632812 C 132.210938 22.578125 132.222656 22.519531 132.230469 22.457031 C 132.234375 22.410156 132.234375 22.359375 132.230469 22.308594 C 132.269531 22.121094 132.296875 21.878906 132.296875 21.878906 C 132.253906 21.988281 132.203125 22.097656 132.140625 22.199219 C 132.03125 22.351562 131.882812 22.457031 131.703125 22.511719 C 131.535156 22.566406 131.464844 22.601562 130.777344 22.445312 C 130.71875 22.433594 130.667969 22.414062 130.625 22.382812 C 130.578125 22.34375 130.546875 22.296875 130.527344 22.242188 L 130.242188 21.652344 C 130.21875 21.597656 130.191406 21.539062 130.160156 21.484375 C 130.140625 21.453125 130.132812 21.417969 130.136719 21.382812 C 130.148438 21.335938 130.175781 21.304688 130.21875 21.28125 C 130.464844 21.097656 130.722656 20.921875 130.984375 20.75 C 131.09375 20.6875 131.203125 20.632812 131.324219 20.59375 C 131.375 20.585938 131.425781 20.585938 131.476562 20.59375 L 131.71875 20.59375 C 131.871094 20.621094 132.011719 20.683594 132.136719 20.773438 C 132.007812 20.546875 131.828125 20.367188 131.597656 20.242188 C 131.375 20.132812 131.136719 20.0625 130.890625 20.03125 L 130.777344 20.03125 L 129.679688 20.632812 L 129.578125 20.714844 L 129.546875 20.746094 L 129.484375 20.800781 L 129.410156 20.878906 C 129.414062 20.507812 129.535156 20.183594 129.773438 19.898438 C 129.871094 19.785156 129.984375 19.691406 130.113281 19.617188 L 130.179688 19.585938 L 130.242188 19.554688 L 130.332031 19.554688 C 130.597656 19.464844 130.863281 19.453125 131.132812 19.523438 C 130.746094 19.304688 130.332031 19.226562 129.890625 19.292969 C 129.753906 19.308594 129.625 19.339844 129.496094 19.382812 L 128.804688 19.609375 C 128.765625 19.617188 128.730469 19.636719 128.699219 19.664062 C 128.683594 19.699219 128.675781 19.734375 128.675781 19.769531 L 128.621094 20.878906 C 128.386719 20.753906 128.230469 20.566406 128.144531 20.316406 C 128.066406 20.074219 128.027344 19.828125 128.03125 19.574219 C 128.03125 19.460938 128.03125 19.367188 128.03125 19.304688 C 128.035156 19.203125 128.058594 19.105469 128.097656 19.011719 C 128.136719 18.917969 128.191406 18.835938 128.261719 18.761719 C 128.378906 18.648438 128.472656 18.625 128.464844 18.605469 C 128.207031 18.601562 127.980469 18.679688 127.777344 18.835938 C 127.660156 18.917969 127.574219 19.023438 127.515625 19.15625 C 127.488281 19.226562 127.472656 19.300781 127.46875 19.375 L 127.40625 20.472656 C 127.394531 20.546875 127.394531 20.621094 127.40625 20.691406 C 127.457031 20.820312 127.53125 20.925781 127.640625 21.007812 C 127.921875 21.253906 128.136719 21.550781 128.289062 21.890625 C 128.441406 22.253906 128.429688 22.613281 128.25 22.960938 L 128.761719 23.828125 C 129.332031 24.511719 129.882812 25.203125 130.410156 25.910156 C 130.441406 25.949219 130.460938 25.992188 130.464844 26.039062 C 130.464844 26.085938 130.449219 26.125 130.421875 26.164062 C 130.363281 26.25 129.34375 27.0625 128.519531 27.695312 L 128.292969 27.695312 C 128.117188 27.632812 127.933594 27.589844 127.75 27.574219 C 127.496094 27.546875 127.246094 27.558594 126.996094 27.605469 L 126.777344 27.652344 C 126.605469 27.699219 126.433594 27.761719 126.269531 27.839844 C 124.617188 27.667969 122.964844 27.523438 121.308594 27.40625 L 121.308594 22.90625 C 121.820312 22.757812 122.261719 22.492188 122.636719 22.117188 C 123.015625 21.742188 123.277344 21.296875 123.425781 20.789062 L 125.023438 20.789062 L 125.023438 19.066406 L 123.425781 19.066406 C 123.277344 18.554688 123.015625 18.113281 122.636719 17.734375 C 122.261719 17.359375 121.820312 17.097656 121.308594 16.949219 L 121.308594 15.710938 L 119.585938 15.710938 L 119.585938 16.949219 C 119.074219 17.097656 118.632812 17.359375 118.253906 17.734375 C 117.878906 18.113281 117.617188 18.554688 117.46875 19.066406 L 115.867188 19.066406 L 115.867188 20.789062 L 117.46875 20.789062 C 117.617188 21.296875 117.878906 21.742188 118.253906 22.117188 C 118.632812 22.492188 119.074219 22.757812 119.585938 22.90625 L 119.585938 27.296875 C 118.015625 27.207031 116.445312 27.144531 114.871094 27.125 C 114.148438 27.125 113.417969 27.125 112.695312 27.125 L 112.695312 23.539062 C 112.679688 23.019531 112.5625 22.519531 112.351562 22.042969 C 112.140625 21.570312 111.847656 21.148438 111.472656 20.789062 C 111.097656 20.425781 110.671875 20.148438 110.1875 19.953125 C 109.707031 19.757812 109.203125 19.660156 108.683594 19.660156 C 108.164062 19.660156 107.660156 19.757812 107.179688 19.953125 C 106.695312 20.148438 106.269531 20.425781 105.894531 20.789062 C 105.519531 21.148438 105.226562 21.570312 105.015625 22.042969 C 104.804688 22.519531 104.6875 23.019531 104.671875 23.539062 L 104.671875 27.492188 C 101.789062 27.699219 98.898438 27.96875 96.015625 28.246094 L 96.015625 16.871094 L 99.066406 16.871094 L 99.066406 18.066406 L 101.179688 18.066406 C 101.179688 17.910156 101.207031 17.757812 101.269531 17.609375 C 101.332031 17.464844 101.417969 17.335938 101.527344 17.222656 C 101.640625 17.109375 101.769531 17.023438 101.914062 16.964844 C 102.0625 16.902344 102.214844 16.871094 102.371094 16.871094 L 102.933594 16.871094 L 102.933594 13.664062 L 102.363281 13.664062 C 102.203125 13.664062 102.050781 13.632812 101.90625 13.574219 C 101.757812 13.511719 101.628906 13.421875 101.515625 13.308594 C 101.40625 13.195312 101.320312 13.066406 101.261719 12.917969 C 101.199219 12.769531 101.171875 12.617188 101.175781 12.457031 L 99.0625 12.457031 L 99.0625 13.652344 L 96.011719 13.652344 L 96.011719 10.988281 L 97.207031 10.988281 L 97.207031 8.878906 C 97.046875 8.878906 96.894531 8.847656 96.75 8.789062 C 96.601562 8.726562 96.472656 8.640625 96.363281 8.53125 C 96.25 8.417969 96.164062 8.289062 96.101562 8.144531 C 96.042969 7.996094 96.011719 7.84375 96.011719 7.6875 L 96.011719 7.40625 L 92.804688 7.40625 L 92.804688 7.699219 C 92.804688 7.859375 92.773438 8.011719 92.714844 8.15625 C 92.652344 8.300781 92.566406 8.429688 92.453125 8.542969 C 92.34375 8.65625 92.214844 8.742188 92.066406 8.800781 C 91.921875 8.863281 91.769531 8.894531 91.609375 8.894531 L 91.609375 11 L 92.804688 11 L 92.804688 13.664062 L 89.75 13.664062 L 89.75 12.457031 L 87.644531 12.457031 C 87.644531 12.617188 87.613281 12.769531 87.550781 12.914062 C 87.488281 13.0625 87.402344 13.191406 87.289062 13.300781 C 87.179688 13.414062 87.046875 13.5 86.902344 13.5625 C 86.753906 13.621094 86.601562 13.652344 86.445312 13.652344 L 85.886719 13.652344 L 85.886719 16.859375 L 86.445312 16.859375 C 86.601562 16.859375 86.757812 16.886719 86.902344 16.949219 C 87.050781 17.007812 87.179688 17.09375 87.292969 17.207031 C 87.40625 17.320312 87.492188 17.449219 87.550781 17.59375 C 87.613281 17.742188 87.644531 17.894531 87.644531 18.050781 L 89.75 18.050781 L 89.75 16.859375 L 92.804688 16.859375 L 92.804688 28.363281 C 90.425781 28.585938 88.046875 28.796875 85.691406 28.953125 L 85.480469 26.671875 C 85.480469 26.460938 85.4375 26.238281 85.417969 26.027344 L 85.460938 26.09375 C 85.5 26.167969 85.550781 26.234375 85.613281 26.292969 C 85.691406 26.351562 85.765625 26.351562 85.84375 26.292969 C 85.847656 26.28125 85.847656 26.265625 85.84375 26.253906 C 85.847656 26.246094 85.847656 26.234375 85.84375 26.226562 C 85.847656 26.214844 85.847656 26.207031 85.84375 26.199219 C 85.84375 26.199219 85.84375 26.199219 85.84375 26.167969 C 85.84375 26.140625 85.84375 26.167969 85.84375 26.128906 L 85.84375 26.105469 C 85.84375 26.089844 85.84375 26.070312 85.84375 26.050781 L 85.589844 24.875 C 85.578125 24.738281 85.519531 24.625 85.417969 24.53125 C 85.347656 24.488281 85.269531 24.464844 85.1875 24.460938 C 84.632812 24.472656 84.097656 24.578125 83.574219 24.769531 C 82.257812 25.285156 81.9375 25.386719 81.773438 25.550781 C 81.738281 25.582031 81.707031 25.621094 81.683594 25.660156 C 81.675781 25.683594 81.675781 25.703125 81.683594 25.726562 C 81.675781 25.742188 81.675781 25.753906 81.683594 25.769531 C 81.679688 25.777344 81.679688 25.789062 81.683594 25.796875 C 81.683594 25.796875 81.683594 25.832031 81.683594 25.84375 C 81.683594 25.867188 81.683594 25.886719 81.683594 25.90625 C 81.683594 25.996094 81.683594 26.046875 81.554688 26.300781 C 81.425781 26.558594 81.386719 26.6875 81.367188 26.746094 C 81.277344 27 81.183594 27.269531 81.304688 27.394531 C 81.457031 27.503906 81.605469 27.503906 81.753906 27.394531 L 81.753906 27.597656 L 81.726562 27.796875 C 81.726562 27.828125 81.726562 27.863281 81.726562 27.902344 C 81.6875 28.175781 81.640625 28.480469 81.589844 28.808594 C 81.589844 28.878906 81.589844 28.945312 81.558594 29.019531 C 81.5625 29.0625 81.5625 29.105469 81.558594 29.148438 C 80.003906 29.203125 78.445312 29.234375 76.890625 29.222656 L 76.890625 17.804688 C 76.890625 17.285156 76.839844 16.769531 76.738281 16.261719 C 76.636719 15.753906 76.488281 15.257812 76.289062 14.777344 C 76.089844 14.296875 75.847656 13.839844 75.558594 13.410156 C 75.269531 12.976562 74.941406 12.578125 74.574219 12.210938 C 74.207031 11.84375 73.808594 11.515625 73.375 11.226562 C 72.941406 10.9375 72.488281 10.695312 72.007812 10.496094 C 71.527344 10.296875 71.03125 10.148438 70.523438 10.046875 C 70.011719 9.945312 69.5 9.894531 68.980469 9.894531 C 68.460938 9.894531 67.945312 9.945312 67.4375 10.046875 C 66.925781 10.148438 66.429688 10.296875 65.953125 10.496094 C 65.472656 10.695312 65.015625 10.9375 64.582031 11.226562 C 64.152344 11.515625 63.753906 11.84375 63.386719 12.210938 C 63.015625 12.578125 62.691406 12.976562 62.402344 13.410156 C 62.113281 13.839844 61.867188 14.296875 61.667969 14.777344 C 61.472656 15.257812 61.320312 15.753906 61.21875 16.261719 C 61.117188 16.769531 61.066406 17.285156 61.066406 17.804688 L 61.066406 28.15625 C 59.480469 27.984375 57.90625 27.820312 56.34375 27.65625 L 56.34375 27.613281 C 56.335938 27.589844 56.324219 27.5625 56.308594 27.539062 C 56.273438 27.460938 56.226562 27.386719 56.175781 27.316406 C 56.144531 27.273438 56.113281 27.230469 56.078125 27.191406 C 56.039062 27.152344 56 27.117188 55.957031 27.082031 C 55.382812 26.683594 54.75 26.4375 54.054688 26.34375 C 53.804688 26.292969 53.542969 26.238281 53.289062 26.179688 C 52.863281 26.089844 52.460938 25.941406 52.082031 25.734375 C 51.734375 25.496094 51.378906 25.273438 51.011719 25.070312 L 50.84375 25.007812 C 50.710938 24.964844 50.578125 24.9375 50.4375 24.917969 C 50.757812 24.261719 51.066406 23.605469 51.355469 22.933594 C 51.398438 22.859375 51.417969 22.78125 51.414062 22.695312 C 51.394531 22.585938 51.34375 22.496094 51.261719 22.417969 L 48.40625 19.214844 C 49.746094 18.683594 50.707031 18.320312 51.019531 18.234375 C 51.171875 18.1875 51.3125 18.117188 51.433594 18.015625 C 51.71875 17.742188 51.894531 17.414062 51.964844 17.023438 C 51.996094 16.921875 52.019531 16.8125 52.039062 16.707031 L 52.039062 16.683594 C 52.039062 16.601562 52.066406 16.515625 52.074219 16.421875 C 52.140625 16.0625 52.199219 15.625 52.199219 15.625 C 52.117188 15.828125 52.019531 16.023438 51.910156 16.210938 C 51.707031 16.496094 51.441406 16.6875 51.105469 16.78125 C 50.804688 16.886719 50.671875 16.949219 49.417969 16.660156 C 49.3125 16.644531 49.21875 16.609375 49.128906 16.550781 C 49.054688 16.476562 48.996094 16.390625 48.953125 16.292969 L 48.441406 15.21875 C 48.386719 15.117188 48.339844 15.011719 48.289062 14.90625 C 48.242188 14.84375 48.230469 14.773438 48.253906 14.695312 C 48.273438 14.621094 48.320312 14.566406 48.394531 14.535156 C 48.871094 14.199219 49.316406 13.871094 49.792969 13.5625 C 49.988281 13.445312 50.195312 13.351562 50.410156 13.277344 C 50.5 13.257812 50.589844 13.25 50.683594 13.253906 L 50.894531 13.253906 C 50.976562 13.257812 51.054688 13.269531 51.132812 13.285156 C 51.410156 13.347656 51.664062 13.457031 51.894531 13.617188 C 51.652344 13.214844 51.328125 12.894531 50.914062 12.667969 C 50.503906 12.464844 50.070312 12.339844 49.617188 12.289062 L 49.40625 12.261719 L 47.410156 13.355469 C 47.34375 13.40625 47.277344 13.460938 47.21875 13.519531 L 47.164062 13.5625 L 47.050781 13.664062 L 46.914062 13.804688 C 46.917969 13.128906 47.136719 12.53125 47.574219 12.015625 C 47.757812 11.8125 47.960938 11.644531 48.195312 11.5 L 48.316406 11.433594 L 48.429688 11.378906 L 48.527344 11.335938 L 48.59375 11.335938 C 49.074219 11.167969 49.558594 11.148438 50.050781 11.273438 C 49.703125 11.078125 49.339844 10.941406 48.949219 10.867188 C 48.558594 10.808594 48.167969 10.808594 47.78125 10.867188 C 47.535156 10.902344 47.296875 10.960938 47.0625 11.039062 L 45.796875 11.445312 C 45.722656 11.460938 45.660156 11.496094 45.609375 11.554688 C 45.578125 11.613281 45.5625 11.675781 45.5625 11.742188 C 45.53125 12.417969 45.492188 13.09375 45.457031 13.769531 C 45.027344 13.546875 44.730469 13.203125 44.574219 12.742188 C 44.429688 12.300781 44.359375 11.84375 44.359375 11.378906 C 44.359375 11.171875 44.359375 11 44.359375 10.902344 C 44.363281 10.714844 44.40625 10.539062 44.484375 10.367188 C 44.550781 10.191406 44.652344 10.03125 44.789062 9.894531 C 44.996094 9.679688 45.167969 9.636719 45.152344 9.601562 C 44.683594 9.597656 44.265625 9.742188 43.898438 10.035156 C 43.6875 10.183594 43.527344 10.375 43.421875 10.613281 C 43.371094 10.738281 43.339844 10.875 43.332031 11.011719 L 43.175781 12.933594 C 43.15625 13.066406 43.15625 13.195312 43.175781 13.328125 C 43.261719 13.558594 43.40625 13.75 43.601562 13.902344 C 44.117188 14.359375 44.511719 14.898438 44.789062 15.527344 C 45.070312 16.1875 45.046875 16.839844 44.710938 17.476562 L 45.664062 19.066406 C 46.707031 20.304688 47.707031 21.570312 48.664062 22.871094 C 48.726562 22.9375 48.761719 23.015625 48.773438 23.105469 C 48.773438 23.1875 48.746094 23.257812 48.699219 23.324219 C 48.582031 23.492188 46.71875 24.976562 45.253906 26.136719 L 44.96875 26.136719 L 44.839844 26.101562 C 44.515625 25.988281 44.183594 25.910156 43.84375 25.875 L 43.84375 23.050781 C 43.855469 22.785156 43.835938 22.515625 43.792969 22.25 C 43.746094 21.984375 43.675781 21.726562 43.582031 21.472656 C 43.484375 21.222656 43.363281 20.984375 43.21875 20.757812 C 43.074219 20.527344 42.90625 20.316406 42.71875 20.125 C 42.53125 19.929688 42.328125 19.757812 42.105469 19.605469 C 41.882812 19.453125 41.648438 19.324219 41.402344 19.21875 C 41.152344 19.113281 40.898438 19.035156 40.632812 18.980469 C 40.367188 18.925781 40.101562 18.898438 39.832031 18.898438 C 39.5625 18.898438 39.296875 18.925781 39.03125 18.980469 C 38.769531 19.035156 38.511719 19.113281 38.261719 19.21875 C 38.015625 19.324219 37.78125 19.453125 37.558594 19.605469 C 37.335938 19.757812 37.132812 19.929688 36.945312 20.125 C 36.757812 20.316406 36.589844 20.527344 36.445312 20.757812 C 36.300781 20.984375 36.179688 21.222656 36.085938 21.472656 C 35.988281 21.726562 35.917969 21.984375 35.871094 22.25 C 35.828125 22.515625 35.808594 22.785156 35.820312 23.050781 L 35.820312 27.074219 C 34.847656 27.148438 33.882812 27.238281 32.917969 27.34375 L 32.917969 20.335938 C 33.867188 20.058594 34.691406 19.570312 35.390625 18.871094 C 36.089844 18.171875 36.578125 17.347656 36.855469 16.398438 L 39.847656 16.398438 L 39.847656 13.191406 L 36.871094 13.191406 C 36.59375 12.238281 36.105469 11.414062 35.40625 10.714844 C 34.707031 10.015625 33.882812 9.527344 32.929688 9.25 L 32.929688 6.945312 L 29.71875 6.945312 L 29.71875 9.25 C 28.765625 9.527344 27.941406 10.011719 27.238281 10.710938 C 26.535156 11.414062 26.042969 12.238281 25.765625 13.191406 L 22.800781 13.191406 L 22.800781 16.398438 L 25.765625 16.398438 C 26.042969 17.347656 26.53125 18.171875 27.230469 18.871094 C 27.929688 19.570312 28.753906 20.058594 29.707031 20.335938 L 29.707031 27.730469 C 26.890625 28.144531 24.085938 28.679688 21.316406 29.378906 L 21.316406 24.828125 C 21.316406 24.421875 21.277344 24.019531 21.199219 23.621094 C 21.121094 23.222656 21.003906 22.835938 20.847656 22.460938 C 20.691406 22.085938 20.5 21.730469 20.277344 21.390625 C 20.050781 21.054688 19.792969 20.742188 19.507812 20.453125 C 19.21875 20.167969 18.90625 19.910156 18.570312 19.683594 C 18.230469 19.460938 17.875 19.269531 17.5 19.113281 C 17.125 18.957031 16.738281 18.839844 16.339844 18.761719 C 15.941406 18.683594 15.539062 18.640625 15.132812 18.640625 C 14.726562 18.640625 14.324219 18.683594 13.925781 18.761719 C 13.527344 18.839844 13.140625 18.957031 12.765625 19.113281 C 12.390625 19.269531 12.035156 19.460938 11.695312 19.683594 C 11.359375 19.910156 11.046875 20.167969 10.761719 20.453125 C 10.472656 20.742188 10.214844 21.054688 9.992188 21.390625 C 9.765625 21.730469 9.574219 22.085938 9.417969 22.460938 C 9.265625 22.835938 9.144531 23.222656 9.066406 23.621094 C 8.988281 24.019531 8.949219 24.421875 8.949219 24.828125 L 8.949219 33.46875 L 8.035156 33.84375 C 8.035156 33.84375 4.085938 35.269531 4.085938 37.019531 L 370.960938 37.019531 C 365.796875 34.851562 360.492188 33.105469 355.046875 31.78125 Z M 343.882812 11.300781 C 344.503906 11.535156 345.050781 11.886719 345.523438 12.359375 C 345.992188 12.828125 346.34375 13.375 346.578125 14 L 343.882812 14 Z M 343.882812 17.207031 L 346.578125 17.207031 C 346.34375 17.828125 345.992188 18.375 345.523438 18.84375 C 345.050781 19.316406 344.503906 19.664062 343.882812 19.898438 Z M 340.675781 11.300781 L 340.675781 14 L 337.980469 14 C 338.214844 13.375 338.566406 12.828125 339.035156 12.359375 C 339.503906 11.886719 340.050781 11.535156 340.675781 11.300781 Z M 337.980469 17.214844 L 340.675781 17.214844 L 340.675781 19.90625 C 340.050781 19.675781 339.503906 19.324219 339.035156 18.855469 C 338.566406 18.382812 338.214844 17.835938 337.980469 17.214844 Z M 326.226562 16.96875 C 327.097656 17.296875 327.695312 17.894531 328.019531 18.765625 L 326.226562 18.765625 Z M 326.226562 20.902344 L 328.019531 20.902344 C 327.695312 21.773438 327.097656 22.371094 326.226562 22.695312 Z M 324.089844 16.96875 L 324.089844 18.765625 L 322.296875 18.765625 C 322.621094 17.890625 323.21875 17.289062 324.089844 16.957031 Z M 322.296875 20.902344 L 324.089844 20.902344 L 324.089844 22.695312 C 323.21875 22.367188 322.621094 21.765625 322.296875 20.894531 Z M 241.761719 17.425781 C 242.453125 17.695312 242.929688 18.179688 243.1875 18.875 L 241.761719 18.875 Z M 241.761719 20.597656 L 243.1875 20.597656 C 242.925781 21.285156 242.449219 21.761719 241.761719 22.023438 Z M 240.039062 17.425781 L 240.039062 18.875 L 238.609375 18.875 C 238.867188 18.179688 239.339844 17.695312 240.03125 17.425781 Z M 238.609375 20.597656 L 240.039062 20.597656 L 240.039062 22.023438 C 239.339844 21.769531 238.855469 21.292969 238.585938 20.597656 Z M 183.628906 10.492188 C 184.25 10.726562 184.796875 11.078125 185.265625 11.550781 C 185.734375 12.019531 186.085938 12.566406 186.320312 13.191406 L 183.628906 13.191406 Z M 183.628906 16.398438 L 186.320312 16.398438 C 186.085938 17.019531 185.738281 17.566406 185.265625 18.035156 C 184.796875 18.507812 184.25 18.855469 183.628906 19.089844 Z M 180.421875 10.492188 L 180.421875 13.191406 L 177.722656 13.191406 C 177.957031 12.566406 178.308594 12.019531 178.78125 11.550781 C 179.25 11.078125 179.796875 10.726562 180.421875 10.492188 Z M 177.722656 16.398438 L 180.421875 16.398438 L 180.421875 19.089844 C 179.796875 18.855469 179.25 18.507812 178.78125 18.035156 C 178.308594 17.566406 177.957031 17.019531 177.722656 16.398438 Z M 121.304688 17.4375 C 121.992188 17.699219 122.46875 18.175781 122.730469 18.867188 L 121.304688 18.867188 Z M 121.304688 20.605469 L 122.730469 20.605469 C 122.46875 21.296875 121.992188 21.773438 121.304688 22.035156 Z M 119.582031 17.4375 L 119.582031 18.867188 L 118.128906 18.867188 C 118.398438 18.171875 118.882812 17.695312 119.582031 17.4375 Z M 118.128906 20.605469 L 119.582031 20.605469 L 119.582031 22.035156 C 118.882812 21.777344 118.398438 21.304688 118.128906 20.605469 Z M 32.929688 10.492188 C 33.554688 10.726562 34.097656 11.082031 34.570312 11.550781 C 35.039062 12.019531 35.390625 12.566406 35.625 13.191406 L 32.929688 13.191406 Z M 32.929688 16.398438 L 35.625 16.398438 C 35.390625 17.019531 35.039062 17.566406 34.570312 18.035156 C 34.097656 18.503906 33.554688 18.855469 32.929688 19.089844 Z M 29.71875 10.492188 L 29.71875 13.191406 L 27.027344 13.191406 C 27.261719 12.566406 27.613281 12.019531 28.082031 11.550781 C 28.550781 11.082031 29.097656 10.726562 29.71875 10.492188 Z M 27.027344 16.398438 L 29.71875 16.398438 L 29.71875 19.089844 C 29.097656 18.855469 28.550781 18.503906 28.082031 18.035156 C 27.613281 17.566406 27.261719 17.019531 27.027344 16.398438 Z M 27.027344 16.398438 " fill-opacity="1" fill-rule="nonzero"/></g><g clip-path="url(#276054efb0)"><g transform="matrix(1, 0, 0, 1, 196, 12)"><g clip-path="url(#c212552538)"><g clip-path="url(#0e624cfd41)"><path fill="#cdc2fd" d="M 0.132812 0.953125 L 11.234375 0.953125 L 11.234375 12.054688 L 0.132812 12.054688 Z M 0.132812 0.953125 " fill-opacity="1" fill-rule="nonzero"/></g></g></g></g></svg>